<svg xmlns="http://www.w3.org/2000/svg" xmlns:xlink="http://www.w3.org/1999/xlink" viewBox="0 0 914.6 1352"><defs><style>.cls-1{fill:url(#Degradado_sin_nombre_7);}.cls-2{fill:url(#Degradado_sin_nombre_7-2);}</style><linearGradient id="Degradado_sin_nombre_7" x1="2.44" y1="669.67" x2="630.94" y2="680.64" gradientUnits="userSpaceOnUse"><stop offset="0" stop-color="#0871b8"/><stop offset="0.78" stop-color="#2f358b"/></linearGradient><linearGradient id="Degradado_sin_nombre_7-2" x1="267.48" y1="671.08" x2="916.94" y2="682.42" xlink:href="#Degradado_sin_nombre_7"/></defs><title>logo_1</title><g id="Capa_2" data-name="Capa 2"><g id="Capa_3" data-name="Capa 3"><g id="A"><path class="cls-1" d="M371.54,425.49C219.61,532.73,170.08,768.63,175.3,836.89h0L148.16,726.46C115.48,588.47,105.45,482.2,109.5,387,69,571.94,59.15,775.72,94.1,971.44c-36.61-41.11-68-103.5-92.17-197.65-9.61,96.37,16.24,209.82,86.49,322.69,60.2,91.23,77.73,183.58,63.52,255.52,26-20.83,46.9-49.26,60.49-77.58,29.07-67.2,50.24-164.31,36.62-225.72-12.2-83.93-2.37-144.42,13.38-180.1,28.73-78.93,81.68-165.35,141.1-210.45l.57-.26c85.57-56,162.35-175,203-286.59C653,267.19,654.52,116,578,.27l.57-.27c3.6,127.8-4.44,187.79-16,223.74C546.83,265.59,501,324.94,371,425.76"/><path class="cls-2" d="M543.06,425.49C695,532.73,744.52,768.63,739.3,836.89h0l27.16-110.44c32.68-138,42.71-244.26,38.66-339.43,40.46,184.91,50.35,388.69,15.4,584.41,36.61-41.11,68-103.5,92.17-197.65,9.61,96.37-16.25,209.82-86.5,322.69C766,1187.71,748.45,1280.06,762.66,1352c-26-20.83-46.9-49.26-60.49-77.58-29.08-67.2-50.24-164.31-36.62-225.72,12.2-83.93,2.36-144.42-13.38-180.1-28.73-78.93-81.68-165.35-141.1-210.45l-.57-.26c-85.57-56-162.35-175-203-286.59-46-104.11-47.47-255.3,29-371L336,0c-3.59,127.8,4.45,187.79,16,223.74,15.75,41.85,61.61,101.2,191.62,202"/></g></g></g></svg>